# xmcd
#
# Track frame offsets:
#	150
#	11508
#	25052
#	38841
#	52299
#	63261
#	81586
#	97632
#	107615
#
# Disc length: 1613 seconds
#
# Revision: 1
# Processed by: cddbd v1.5.2PL0 Copyright (c) Steve Scherf et al.
# Submitted via: audiograbber 1.83.01
#
DISCID=68064b09
DTITLE=Vern Gosdin - Too Far Gone
DYEAR=1984
DGENRE=Country
TTITLE0=Too Far Gone To Find
TTITLE1=Just Give Me What You Think Is Fair
TTITLE2=I Was Afraid Of That
TTITLE3=Lady
TTITLE4=Don't Ever Leave Me Again
TTITLE5=Cowboys Are Common As Sin
TTITLE6=It Might Have Been
TTITLE7=Damn The Fever
TTITLE8=Only For You
EXTD=
EXTT0=
EXTT1=
EXTT2=
EXTT3=
EXTT4=
EXTT5=
EXTT6=
EXTT7=
EXTT8=
PLAYORDER=
